<svg xmlns="http://www.w3.org/2000/svg" width="20" height="20" viewBox="0 0 20 20" fill="none">
<path fill-rule="evenodd" clip-rule="evenodd" d="M12.0017 10.9598C11.9956 10.9378 12.0054 10.9144 12.0254 10.903C13.2366 10.2086 14.0512 8.91297 14.0512 7.4292C14.0512 5.21303 12.2339 3.41646 9.9922 3.41646C7.75046 3.41646 5.93317 5.21303 5.93317 7.4292C5.93317 8.91593 6.75103 10.2138 7.96624 10.9071C7.98628 10.9186 7.99615 10.942 7.98999 10.9641L5.55789 19.6842C5.51359 19.843 5.63417 20 5.80047 20H14.1842C14.3504 20 14.471 19.8432 14.4269 19.6844L12.0017 10.9598Z" fill="#060606"/>
<path d="M6.30035 11.9667C6.32654 11.8728 6.2948 11.7727 6.22142 11.7079C5.69118 11.2391 5.24979 10.6725 4.9244 10.0341C4.34093 8.88919 4.16505 7.58097 4.42554 6.32357C4.68603 5.06616 5.36748 3.93407 6.3583 3.11263C7.34912 2.29119 8.59063 1.82906 9.87958 1.8019C11.1685 1.77473 12.4286 2.18414 13.4534 2.96311C14.4782 3.74207 15.2072 4.84444 15.5208 6.08974C15.8345 7.33504 15.7144 8.6495 15.18 9.81794C14.8471 10.546 14.3657 11.1904 13.7722 11.7135C13.6986 11.7783 13.6667 11.8784 13.6929 11.9724L14.0744 13.3448C14.12 13.509 14.3146 13.5804 14.4527 13.479C15.4744 12.7283 16.2938 11.7271 16.8256 10.5642C17.5296 9.02457 17.6879 7.29254 17.2746 5.65164C16.8613 4.01074 15.9008 2.55818 14.5504 1.53177C13.2 0.505357 11.5397 -0.0341146 9.84133 0.00167241C8.14291 0.0374716 6.50701 0.646399 5.20143 1.72879C3.89585 2.81118 2.99795 4.3029 2.6547 5.95974C2.31145 7.61659 2.54321 9.34039 3.31203 10.849C3.84276 11.8904 4.60772 12.7866 5.53905 13.4729C5.67701 13.5745 5.87178 13.5033 5.91758 13.3391L6.30035 11.9667Z" fill="#060606"/>
</svg>