<svg width="240" height="128" viewBox="0 0 240 128" fill="none" xmlns="http://www.w3.org/2000/svg">
<g opacity="0.8">
<rect width="240" height="32" rx="8" fill="#43474F"/>
<rect x="5" y="5" width="22" height="22" rx="4" fill="#8E939C"/>
<rect x="33" y="7" width="75" height="8" rx="2" fill="#8E939C"/>
<rect x="33" y="18" width="55" height="8" rx="2" fill="#646A73"/>
<rect x="128" y="12" width="40" height="8" rx="2" fill="#25292E"/>
<rect x="180" y="12" width="18" height="8" rx="2" fill="#25292E"/>
<rect x="210" y="12" width="18" height="8" rx="2" fill="#8E939C"/>
</g>
<g opacity="0.5">
<rect y="48" width="240" height="32" rx="8" fill="#43474F"/>
<rect x="5" y="53" width="22" height="22" rx="4" fill="#8E939C"/>
<rect x="33" y="55" width="75" height="8" rx="2" fill="#8E939C"/>
<rect x="33" y="66" width="55" height="8" rx="2" fill="#646A73"/>
<rect x="128" y="60" width="40" height="8" rx="2" fill="#25292E"/>
<rect x="180" y="60" width="18" height="8" rx="2" fill="#25292E"/>
<rect x="210" y="60" width="18" height="8" rx="2" fill="#8E939C"/>
</g>
<g opacity="0.2">
<rect y="96" width="240" height="32" rx="8" fill="#43474F"/>
<rect x="5" y="101" width="22" height="22" rx="4" fill="#8E939C"/>
<rect x="33" y="103" width="75" height="8" rx="2" fill="#8E939C"/>
<rect x="33" y="114" width="55" height="8" rx="2" fill="#646A73"/>
<rect x="128" y="108" width="40" height="8" rx="2" fill="#25292E"/>
<rect x="180" y="108" width="18" height="8" rx="2" fill="#25292E"/>
<rect x="210" y="108" width="18" height="8" rx="2" fill="#8E939C"/>
</g>
</svg>
