<svg width="28" height="28" viewBox="0 0 28 28" fill="none" xmlns="http://www.w3.org/2000/svg">
<g id="Icon/Solid/microphone">
<g id="Icon">
<path d="M9.80019 5.60039C9.80019 3.2808 11.6806 1.40039 14.0002 1.40039C16.3198 1.40039 18.2002 3.2808 18.2002 5.60039V11.2004C18.2002 13.52 16.3198 15.4004 14.0002 15.4004C11.6806 15.4004 9.80019 13.52 9.80019 11.2004V5.60039Z" fill="white"/>
<path d="M15.4002 20.9011C20.1494 20.2218 23.8002 16.1375 23.8002 11.2004C23.8002 10.4272 23.1734 9.80039 22.4002 9.80039C21.627 9.80039 21.0002 10.4272 21.0002 11.2004C21.0002 15.0664 17.8662 18.2004 14.0002 18.2004C10.1342 18.2004 7.0002 15.0664 7.0002 11.2004C7.0002 10.4272 6.37339 9.80039 5.6002 9.80039C4.827 9.80039 4.2002 10.4272 4.2002 11.2004C4.2002 16.1375 7.85098 20.2218 12.6002 20.9011V23.8004H8.4002C7.627 23.8004 7.0002 24.4272 7.0002 25.2004C7.0002 25.9736 7.627 26.6004 8.4002 26.6004H19.6002C20.3734 26.6004 21.0002 25.9736 21.0002 25.2004C21.0002 24.4272 20.3734 23.8004 19.6002 23.8004H15.4002V20.9011Z" fill="white"/>
</g>
</g>
</svg>
