<svg width="80" height="80" viewBox="0 0 80 80" fill="none" xmlns="http://www.w3.org/2000/svg">
<path d="M63.3333 10H16.6667C13 10 10 13 10 16.6667V63.3333C10 67 13 70 16.6667 70H63.3333C67 70 70 67 70 63.3333V16.6667C70 13 67 10 63.3333 10ZM23.3333 23.3333H30V30H23.3333V23.3333ZM23.3333 36.6667H30V43.3333H23.3333V36.6667ZM23.3333 50H30V56.6667H23.3333V50ZM56.6667 56.6667H36.6667V50H56.6667V56.6667ZM56.6667 43.3333H36.6667V36.6667H56.6667V43.3333ZM56.6667 30H36.6667V23.3333H56.6667V30Z" fill="url(#paint0_linear_5288_14778)"/>
<defs>
<linearGradient id="paint0_linear_5288_14778" x1="10" y1="10" x2="70" y2="70" gradientUnits="userSpaceOnUse">
<stop stop-color="#FFB447"/>
<stop offset="1" stop-color="#C58831"/>
</linearGradient>
</defs>
</svg>
