<svg width="60" height="60" viewBox="0 0 60 60" fill="none" xmlns="http://www.w3.org/2000/svg">
<path d="M13.3333 46.6667H46.6667C47.3333 46.6667 47.8333 46.3611 48.1667 45.75C48.5 45.1389 48.4444 44.5556 48 44L38.8333 31.75C38.5 31.3056 38.0556 31.0833 37.5 31.0833C36.9444 31.0833 36.5 31.3056 36.1667 31.75L27.5 43.3333L21.3333 35.0833C21 34.6389 20.5556 34.4167 20 34.4167C19.4444 34.4167 19 34.6389 18.6667 35.0833L12 44C11.5556 44.5556 11.5 45.1389 11.8333 45.75C12.1667 46.3611 12.6667 46.6667 13.3333 46.6667ZM6.66667 60C4.83333 60 3.26333 59.3478 1.95667 58.0433C0.652222 56.7367 0 55.1667 0 53.3333V6.66667C0 4.83333 0.652222 3.26333 1.95667 1.95667C3.26333 0.652222 4.83333 0 6.66667 0H53.3333C55.1667 0 56.7367 0.652222 58.0433 1.95667C59.3478 3.26333 60 4.83333 60 6.66667V53.3333C60 55.1667 59.3478 56.7367 58.0433 58.0433C56.7367 59.3478 55.1667 60 53.3333 60H6.66667ZM6.66667 53.3333H53.3333V6.66667H6.66667V53.3333Z" fill="#8E939C"/>
</svg>
