<svg width="29" height="28" viewBox="0 0 29 28" fill="none" xmlns="http://www.w3.org/2000/svg">
<path d="M18.1199 6.42088C19.2134 5.32741 20.9862 5.32741 22.0797 6.42088C23.1732 7.51435 23.1732 9.28721 22.0797 10.3807L17.8797 14.5807C16.7862 15.6742 15.0133 15.6742 13.9199 14.5807C13.3731 14.0339 12.4867 14.0339 11.94 14.5807C11.3932 15.1274 11.3932 16.0138 11.94 16.5606C14.1269 18.7475 17.6726 18.7475 19.8596 16.5606L24.0596 12.3606C26.2465 10.1736 26.2465 6.62792 24.0596 4.44098C21.8726 2.25405 18.3269 2.25405 16.14 4.44098L14.04 6.54098C13.4932 7.08772 13.4932 7.97415 14.04 8.52088C14.5867 9.06762 15.4731 9.06762 16.0199 8.52088L18.1199 6.42088Z" fill="#060606"/>
<path d="M11.1199 13.4209C12.2134 12.3274 13.9862 12.3274 15.0797 13.4209C15.6264 13.9676 16.5129 13.9676 17.0596 13.4209C17.6063 12.8741 17.6063 11.9877 17.0596 11.441C14.8727 9.25405 11.3269 9.25405 9.14001 11.441L4.94001 15.641C2.75307 17.8279 2.75307 21.3736 4.94001 23.5606C7.12694 25.7475 10.6727 25.7475 12.8596 23.5606L14.9596 21.4606C15.5063 20.9138 15.5063 20.0274 14.9596 19.4807C14.4129 18.9339 13.5264 18.9339 12.9797 19.4807L10.8797 21.5807C9.78624 22.6742 8.01337 22.6742 6.91991 21.5807C5.82644 20.4872 5.82644 18.7144 6.91991 17.6209L11.1199 13.4209Z" fill="#060606"/>
</svg>
