<svg width="26" height="21" viewBox="0 0 26 21" fill="none" xmlns="http://www.w3.org/2000/svg">
<path d="M25.2035 3.00008C24.3052 3.40841 23.3369 3.67675 22.3335 3.80508C23.3602 3.18675 24.1535 2.20675 24.5269 1.02841C23.5585 1.61175 22.4852 2.02008 21.3535 2.25341C20.4319 1.25008 19.1369 0.666748 17.6669 0.666748C14.9252 0.666748 12.6852 2.90675 12.6852 5.67175C12.6852 6.06842 12.7319 6.45342 12.8135 6.81508C8.66021 6.60508 4.96188 4.61008 2.50021 1.58841C2.06854 2.32341 1.82354 3.18675 1.82354 4.09675C1.82354 5.83508 2.69854 7.37508 4.05188 8.25008C3.22354 8.25008 2.45354 8.01675 1.77688 7.66675V7.70175C1.77688 10.1284 3.50354 12.1584 5.79021 12.6134C5.05606 12.8143 4.28532 12.8423 3.53854 12.6951C3.85542 13.6896 4.476 14.5599 5.31306 15.1835C6.15012 15.8071 7.16156 16.1527 8.20521 16.1718C6.43611 17.5723 4.2432 18.3293 1.98688 18.3184C1.59021 18.3184 1.19354 18.2951 0.796875 18.2484C3.01354 19.6717 5.65021 20.5001 8.47354 20.5001C17.6669 20.5001 22.7185 12.8701 22.7185 6.25508C22.7185 6.03341 22.7185 5.82341 22.7069 5.60175C23.6869 4.90175 24.5269 4.01508 25.2035 3.00008Z" fill="#C4C9CF"/>
</svg>
