<svg width="80" height="80" viewBox="0 0 80 80" fill="none" xmlns="http://www.w3.org/2000/svg">
<path d="M67.2001 22.7995C57.6001 7.99951 38.0001 3.59951 22.8001 12.7995C8.00009 21.9995 3.2001 41.9995 12.8001 56.7995L13.6001 57.9995L10.4001 69.9995L22.4001 66.7995L23.6001 67.5995C28.8001 70.3995 34.4001 71.9995 40.0001 71.9995C46.0001 71.9995 52.0001 70.3995 57.2001 67.1995C72.0001 57.5995 76.4001 37.9995 67.2001 22.7995ZM58.8001 53.5995C57.2001 55.9995 55.2001 57.5995 52.4001 57.9995C50.8001 57.9995 48.8001 58.7995 40.8001 55.5995C34.0001 52.3995 28.4001 47.1995 24.4001 41.1995C22.0001 38.3995 20.8001 34.7995 20.4001 31.1995C20.4001 27.9995 21.6001 25.1995 23.6001 23.1995C24.4001 22.3995 25.2001 21.9995 26.0001 21.9995H28.0001C28.8001 21.9995 29.6001 21.9995 30.0001 23.5995C30.8001 25.5995 32.8001 30.3995 32.8001 30.7995C33.2001 31.1995 33.2001 31.9995 32.8001 32.3995C33.2001 33.1995 32.8001 33.9995 32.4001 34.3995C32.0001 34.7995 31.6001 35.5995 31.2001 35.9995C30.4001 36.3995 30.0001 37.1995 30.4001 37.9995C32.0001 40.3995 34.0001 42.7995 36.0001 44.7995C38.4001 46.7995 40.8001 48.3995 43.6001 49.5995C44.4001 49.9995 45.2001 49.9995 45.6001 49.1995C46.0001 48.3995 48.0001 46.3995 48.8001 45.5995C49.6001 44.7995 50.0001 44.7995 50.8001 45.1995L57.2001 48.3995C58.0001 48.7995 58.8001 49.1995 59.2001 49.5995C59.6001 50.7995 59.6001 52.3995 58.8001 53.5995Z" fill="#8E939C"/>
</svg>
