<svg width="22" height="22" viewBox="0 0 22 22" fill="none" xmlns="http://www.w3.org/2000/svg">
<path d="M19.1667 0.5C19.7855 0.5 20.379 0.745833 20.8166 1.18342C21.2542 1.621 21.5 2.21449 21.5 2.83333V19.1667C21.5 19.7855 21.2542 20.379 20.8166 20.8166C20.379 21.2542 19.7855 21.5 19.1667 21.5H2.83333C2.21449 21.5 1.621 21.2542 1.18342 20.8166C0.745833 20.379 0.5 19.7855 0.5 19.1667V2.83333C0.5 2.21449 0.745833 1.621 1.18342 1.18342C1.621 0.745833 2.21449 0.5 2.83333 0.5H19.1667ZM18.5833 18.5833V12.4C18.5833 11.3913 18.1826 10.4239 17.4694 9.71064C16.7561 8.99737 15.7887 8.59667 14.78 8.59667C13.7883 8.59667 12.6333 9.20333 12.0733 10.1133V8.81833H8.81833V18.5833H12.0733V12.8317C12.0733 11.9333 12.7967 11.1983 13.695 11.1983C14.1282 11.1983 14.5436 11.3704 14.8499 11.6767C15.1562 11.983 15.3283 12.3985 15.3283 12.8317V18.5833H18.5833ZM5.02667 6.98667C5.54649 6.98667 6.04502 6.78017 6.4126 6.4126C6.78017 6.04502 6.98667 5.54649 6.98667 5.02667C6.98667 3.94167 6.11167 3.055 5.02667 3.055C4.50375 3.055 4.00225 3.26273 3.63249 3.63249C3.26273 4.00225 3.055 4.50375 3.055 5.02667C3.055 6.11167 3.94167 6.98667 5.02667 6.98667ZM6.64833 18.5833V8.81833H3.41667V18.5833H6.64833Z" fill="#C4C9CF"/>
</svg>
