<svg width="24" height="24" viewBox="0 0 24 24" fill="none" xmlns="http://www.w3.org/2000/svg">
<g id="Icon/Solid/lock-closed">
<path id="Icon" d="M5.99961 11.8004H6.99961V10.8004V8.40039C6.99961 5.63897 9.23819 3.40039 11.9996 3.40039C14.761 3.40039 16.9996 5.63897 16.9996 8.40039V10.8004V11.8004H17.9996C18.7728 11.8004 19.3996 12.4272 19.3996 13.2004V19.2004C19.3996 19.9736 18.7728 20.6004 17.9996 20.6004H5.99961C5.22641 20.6004 4.59961 19.9736 4.59961 19.2004V13.2004C4.59961 12.4272 5.22641 11.8004 5.99961 11.8004ZM15.5996 11.8004H16.5996V10.8004V8.40039C16.5996 5.85988 14.5401 3.80039 11.9996 3.80039C9.4591 3.80039 7.39961 5.85988 7.39961 8.40039V10.8004V11.8004H8.39961H15.5996Z" fill="#B296FF" stroke="#B296FF" stroke-width="2"/>
</g>
</svg>
