<svg width="40" height="40" viewBox="0 0 40 40" fill="none" xmlns="http://www.w3.org/2000/svg">
<path d="M10 10.0007C10 9.08018 10.7462 8.33398 11.6667 8.33398H15C15.9205 8.33398 16.6667 9.08018 16.6667 10.0007V30.0007C16.6667 30.9211 15.9205 31.6673 15 31.6673H11.6667C10.7462 31.6673 10 30.9211 10 30.0007V10.0007Z" fill="white"/>
<path d="M23.3333 10.0007C23.3333 9.08018 24.0795 8.33398 25 8.33398H28.3333C29.2538 8.33398 30 9.08018 30 10.0007V30.0007C30 30.9211 29.2538 31.6673 28.3333 31.6673H25C24.0795 31.6673 23.3333 30.9211 23.3333 30.0007V10.0007Z" fill="white"/>
</svg>
