<svg width="20" height="20" viewBox="0 0 20 20" fill="none" xmlns="http://www.w3.org/2000/svg">
<path d="M1.66817 10.0012C1.67011 8.49016 2.25752 7.04156 3.30158 5.97308C4.34563 4.90461 5.76112 4.30346 7.23764 4.30148H14.4926L14.2361 4.03899C14.1543 3.95528 14.0894 3.85589 14.0452 3.74652C14.0009 3.63714 13.9781 3.51991 13.9781 3.40152C13.9781 3.28313 14.0009 3.1659 14.0452 3.05652C14.0894 2.94715 14.1543 2.84776 14.2361 2.76405C14.3179 2.68034 14.415 2.61393 14.5219 2.56862C14.6288 2.52332 14.7433 2.5 14.859 2.5C14.9747 2.5 15.0893 2.52332 15.1961 2.56862C15.303 2.61393 15.4001 2.68034 15.4819 2.76405L17.2407 4.56397C17.3227 4.64758 17.3877 4.74692 17.4321 4.85632C17.4765 4.96571 17.4993 5.08299 17.4993 5.20144C17.4993 5.31988 17.4765 5.43717 17.4321 5.54656C17.3877 5.65595 17.3227 5.7553 17.2407 5.83891L15.4819 7.63882C15.316 7.80645 15.0922 7.90044 14.859 7.90044C14.6259 7.90044 14.4021 7.80645 14.2361 7.63882C14.1541 7.55522 14.0891 7.45587 14.0447 7.34647C14.0003 7.23708 13.9775 7.1198 13.9775 7.00135C13.9775 6.88291 14.0003 6.76562 14.0447 6.65623C14.0891 6.54684 14.1541 6.44749 14.2361 6.36388L14.4926 6.1014H7.23764C6.22699 6.1014 5.25772 6.51227 4.54308 7.24363C3.82844 7.97498 3.42695 8.96692 3.42695 10.0012C3.42695 10.2399 3.3343 10.4688 3.16939 10.6376C3.00447 10.8064 2.78079 10.9012 2.54756 10.9012C2.31434 10.9012 2.09066 10.8064 1.92574 10.6376C1.76082 10.4688 1.66817 10.2399 1.66817 10.0012ZM16.6178 9.10126C16.3846 9.10126 16.1609 9.19607 15.996 9.36485C15.8311 9.53362 15.7384 9.76253 15.7384 10.0012C15.7384 10.5133 15.6398 11.0205 15.4483 11.4936C15.2568 11.9668 14.9761 12.3967 14.6223 12.7588C14.2684 13.1209 13.8483 13.4082 13.386 13.6042C12.9237 13.8002 12.4281 13.901 11.9277 13.901H4.67276L4.92924 13.6385C5.09445 13.4695 5.18726 13.2402 5.18726 13.0011C5.18726 12.762 5.09445 12.5327 4.92924 12.3636C4.76404 12.1945 4.53998 12.0996 4.30634 12.0996C4.07271 12.0996 3.84865 12.1945 3.68344 12.3636L1.92466 14.1635C1.84268 14.2471 1.77763 14.3465 1.73325 14.4559C1.68886 14.5653 1.66602 14.6825 1.66602 14.801C1.66602 14.9194 1.68886 15.0367 1.73325 15.1461C1.77763 15.2555 1.84268 15.3549 1.92466 15.4385L3.68344 17.2384C3.84939 17.406 4.07318 17.5 4.30634 17.5C4.53951 17.5 4.7633 17.406 4.92924 17.2384C5.01123 17.1548 5.07628 17.0554 5.12066 16.946C5.16505 16.8366 5.18789 16.7194 5.18789 16.6009C5.18789 16.4825 5.16505 16.3652 5.12066 16.2558C5.07628 16.1464 5.01123 16.0471 4.92924 15.9634L4.67276 15.701H11.9277C13.4042 15.699 14.8197 15.0978 15.8638 14.0293C16.9078 12.9609 17.4952 11.5123 17.4972 10.0012C17.4972 9.76253 17.4045 9.53362 17.2396 9.36485C17.0747 9.19607 16.851 9.10126 16.6178 9.10126Z" fill="#C4C9CF"/>
</svg>
