<svg width="20" height="20" viewBox="0 0 20 20" fill="none" xmlns="http://www.w3.org/2000/svg">
<path d="M18.7891 13.7106C18.8765 13.7977 18.9458 13.9012 18.9931 14.0152C19.0404 14.1291 19.0648 14.2513 19.0648 14.3747C19.0648 14.4981 19.0404 14.6202 18.9931 14.7342C18.9458 14.8481 18.8765 14.9516 18.7891 15.0387L16.9141 16.9137C16.7371 17.0884 16.4986 17.1863 16.25 17.1863C16.0014 17.1863 15.7629 17.0884 15.5859 16.9137C15.4985 16.8266 15.4292 16.7231 15.3819 16.6092C15.3346 16.4952 15.3102 16.3731 15.3102 16.2497C15.3102 16.1263 15.3346 16.0041 15.3819 15.8902C15.4292 15.7762 15.4985 15.6727 15.5859 15.5856L15.8594 15.3122H13.4453C13.1962 15.3116 12.9508 15.2518 12.7294 15.1377C12.508 15.0236 12.3169 14.8585 12.1719 14.6559L6.39062 6.56217H2.5C2.25136 6.56217 2.0129 6.4634 1.83709 6.28759C1.66127 6.11177 1.5625 5.87331 1.5625 5.62467C1.5625 5.37603 1.66127 5.13758 1.83709 4.96176C2.0129 4.78595 2.25136 4.68717 2.5 4.68717H6.55469C6.80378 4.68772 7.04918 4.74751 7.2706 4.86162C7.49203 4.97573 7.68313 5.14088 7.82812 5.34342L13.6094 13.4372H15.8594L15.5859 13.1637C15.4098 12.9876 15.3109 12.7487 15.3109 12.4997C15.3109 12.2506 15.4098 12.0117 15.5859 11.8356C15.7621 11.6595 16.0009 11.5605 16.25 11.5605C16.4991 11.5605 16.7379 11.6595 16.9141 11.8356L18.7891 13.7106ZM8.625 11.9215C8.4228 11.7781 8.172 11.7206 7.92749 11.7616C7.68298 11.8026 7.46466 11.9387 7.32031 12.1403L6.39062 13.4372H2.5C2.25136 13.4372 2.0129 13.5359 1.83709 13.7118C1.66127 13.8876 1.5625 14.126 1.5625 14.3747C1.5625 14.6233 1.66127 14.8618 1.83709 15.0376C2.0129 15.2134 2.25136 15.3122 2.5 15.3122H6.55469C6.80378 15.3116 7.04918 15.2518 7.2706 15.1377C7.49203 15.0236 7.68313 14.8585 7.82812 14.6559L8.84375 13.234C8.98763 13.0306 9.04537 12.7786 9.00441 12.5328C8.96344 12.287 8.82709 12.0673 8.625 11.9215ZM11.375 8.0778C11.5772 8.22126 11.828 8.27879 12.0725 8.23779C12.317 8.19679 12.5353 8.06061 12.6797 7.85905L13.6094 6.56217H15.8594L15.5859 6.83561C15.4985 6.92271 15.4292 7.0262 15.3819 7.14016C15.3346 7.25411 15.3102 7.37629 15.3102 7.49967C15.3102 7.62306 15.3346 7.74524 15.3819 7.85919C15.4292 7.97315 15.4985 8.07664 15.5859 8.16374C15.7629 8.33836 16.0014 8.43627 16.25 8.43627C16.4986 8.43627 16.7371 8.33836 16.9141 8.16374L18.7891 6.28874C18.8765 6.20164 18.9458 6.09815 18.9931 5.98419C19.0404 5.87024 19.0648 5.74806 19.0648 5.62467C19.0648 5.50129 19.0404 5.37911 18.9931 5.26516C18.9458 5.1512 18.8765 5.04771 18.7891 4.96061L16.9141 3.08561C16.7379 2.90949 16.4991 2.81055 16.25 2.81055C16.0009 2.81055 15.7621 2.90949 15.5859 3.08561C15.4098 3.26173 15.3109 3.5006 15.3109 3.74967C15.3109 3.99874 15.4098 4.23762 15.5859 4.41374L15.8594 4.68717H13.4453C13.1962 4.68772 12.9508 4.74751 12.7294 4.86162C12.508 4.97573 12.3169 5.14088 12.1719 5.34342L11.1562 6.7653C11.0124 6.96874 10.9546 7.22076 10.9956 7.46655C11.0366 7.71234 11.1729 7.93202 11.375 8.0778Z" fill="#C4C9CF"/>
</svg>
