<svg width="22" height="22" viewBox="0 0 22 22" fill="none" xmlns="http://www.w3.org/2000/svg">
<path d="M11 0.5C13.8528 0.5 14.2088 0.5105 15.3281 0.563C16.4463 0.6155 17.2076 0.79085 17.8775 1.05125C18.5705 1.31795 19.1543 1.67915 19.7381 2.2619C20.272 2.78679 20.6852 3.42172 20.9487 4.1225C21.2081 4.79135 21.3845 5.55365 21.437 6.6719C21.4863 7.7912 21.5 8.14715 21.5 11C21.5 13.8528 21.4895 14.2088 21.437 15.3281C21.3845 16.4463 21.2081 17.2076 20.9487 17.8775C20.6859 18.5787 20.2727 19.2137 19.7381 19.7381C19.2131 20.2718 18.5782 20.6849 17.8775 20.9487C17.2086 21.2081 16.4463 21.3845 15.3281 21.437C14.2088 21.4863 13.8528 21.5 11 21.5C8.14715 21.5 7.7912 21.4895 6.6719 21.437C5.55365 21.3845 4.7924 21.2081 4.1225 20.9487C3.42144 20.6857 2.7864 20.2725 2.2619 19.7381C1.72788 19.2133 1.31473 18.5783 1.05125 17.8775C0.79085 17.2086 0.6155 16.4463 0.563 15.3281C0.51365 14.2088 0.5 13.8528 0.5 11C0.5 8.14715 0.5105 7.7912 0.563 6.6719C0.6155 5.5526 0.79085 4.7924 1.05125 4.1225C1.314 3.42129 1.72724 2.78619 2.2619 2.2619C2.78655 1.72769 3.42155 1.31452 4.1225 1.05125C4.7924 0.79085 5.5526 0.6155 6.6719 0.563C7.7912 0.51365 8.14715 0.5 11 0.5ZM11 5.75C9.60761 5.75 8.27225 6.30312 7.28769 7.28769C6.30312 8.27225 5.75 9.60761 5.75 11C5.75 12.3924 6.30312 13.7277 7.28769 14.7123C8.27225 15.6969 9.60761 16.25 11 16.25C12.3924 16.25 13.7277 15.6969 14.7123 14.7123C15.6969 13.7277 16.25 12.3924 16.25 11C16.25 9.60761 15.6969 8.27225 14.7123 7.28769C13.7277 6.30312 12.3924 5.75 11 5.75ZM17.825 5.4875C17.825 5.1394 17.6867 4.80556 17.4406 4.55942C17.1944 4.31328 16.8606 4.175 16.5125 4.175C16.1644 4.175 15.8306 4.31328 15.5844 4.55942C15.3383 4.80556 15.2 5.1394 15.2 5.4875C15.2 5.8356 15.3383 6.16944 15.5844 6.41558C15.8306 6.66172 16.1644 6.8 16.5125 6.8C16.8606 6.8 17.1944 6.66172 17.4406 6.41558C17.6867 6.16944 17.825 5.8356 17.825 5.4875ZM11 7.85C11.8354 7.85 12.6366 8.18187 13.2274 8.77261C13.8181 9.36335 14.15 10.1646 14.15 11C14.15 11.8354 13.8181 12.6366 13.2274 13.2274C12.6366 13.8181 11.8354 14.15 11 14.15C10.1646 14.15 9.36335 13.8181 8.77261 13.2274C8.18187 12.6366 7.85 11.8354 7.85 11C7.85 10.1646 8.18187 9.36335 8.77261 8.77261C9.36335 8.18187 10.1646 7.85 11 7.85Z" fill="#C4C9CF"/>
</svg>
