<svg width="24" height="24" viewBox="0 0 24 24" fill="none" xmlns="http://www.w3.org/2000/svg">
<path d="M11.9997 23.6666C5.55618 23.6666 0.333008 18.4434 0.333008 11.9999C0.333008 5.55642 5.55618 0.333252 11.9997 0.333252C18.4432 0.333252 23.6663 5.55642 23.6663 11.9999C23.6593 18.4399 18.4397 23.6596 11.9997 23.6666ZM7.01451 15.2514C6.86401 15.2514 6.71467 15.2701 6.56767 15.3051L6.39267 15.3529L5.69967 16.5394C5.57309 16.7506 5.53244 17.0023 5.58613 17.2425C5.63982 17.4828 5.78374 17.6932 5.98816 17.8304C6.19258 17.9676 6.44188 18.021 6.68456 17.9796C6.92724 17.9383 7.14476 17.8053 7.29218 17.6081L7.36451 17.4996L8.28618 15.9001C8.1368 15.7003 7.94322 15.5378 7.72058 15.4253C7.49795 15.3127 7.25229 15.2532 7.00284 15.2514H7.01451ZM13.4125 8.10325C13.0495 8.44424 12.8089 8.89522 12.7277 9.38659C12.5976 10.0641 12.7222 10.7658 13.0777 11.3571L16.6243 17.5008C16.7478 17.7084 16.9446 17.8623 17.176 17.9318C17.4073 18.0014 17.6564 17.9816 17.8738 17.8764C18.0907 17.7695 18.2592 17.5846 18.3457 17.3588C18.4323 17.133 18.4304 16.8829 18.3405 16.6584L18.2833 16.5418L17.35 14.9189H18.7383C18.9815 14.9169 19.2148 14.8227 19.3912 14.6553C19.5676 14.488 19.6739 14.2599 19.6887 14.0173C19.7035 13.7746 19.6257 13.5353 19.4709 13.3477C19.3162 13.1602 19.0961 13.0383 18.855 13.0068L18.7383 12.9998H16.2417L13.682 8.56642L13.4148 8.09975L13.4125 8.10325ZM5.30301 12.9916C5.17764 12.9919 5.05356 13.0169 4.93788 13.0653C4.8222 13.1136 4.7172 13.1843 4.62887 13.2732C4.54055 13.3622 4.47064 13.4677 4.42316 13.5838C4.37568 13.6998 4.35156 13.8241 4.35217 13.9494C4.35217 14.4324 4.71151 14.8408 5.19101 14.9026L5.30767 14.9084H14.0343C14.1309 14.7145 14.1795 14.5002 14.1761 14.2836C14.1726 14.067 14.1172 13.8543 14.0145 13.6636C13.9272 13.4849 13.797 13.3305 13.6356 13.2143C13.4742 13.0981 13.2865 13.0236 13.0893 12.9974L12.9482 12.9904H9.97201L14.088 5.86325C14.2148 5.64232 14.2492 5.38025 14.1837 5.13409C14.1371 4.96134 14.0432 4.80502 13.9126 4.68273C13.782 4.56043 13.6199 4.47701 13.4444 4.44185C13.269 4.40669 13.0872 4.42119 12.9196 4.48371C12.7519 4.54623 12.6051 4.6543 12.4955 4.79575L12.4232 4.90309L11.9997 5.64275L11.5808 4.90309C11.4574 4.69511 11.2603 4.54109 11.0287 4.47152C10.7971 4.40194 10.5478 4.42189 10.3302 4.52742C10.1134 4.63481 9.94504 4.81988 9.85857 5.0458C9.77209 5.27171 9.77386 5.52191 9.86351 5.74659L9.92068 5.86325L10.889 7.56659L7.75651 12.9916H5.30301Z" fill="#C4C9CF"/>
</svg>
