<svg width="80" height="80" viewBox="0 0 80 80" fill="none" xmlns="http://www.w3.org/2000/svg">
<g id="chest-logo-edit">
<g id="Vector">
<path fill-rule="evenodd" clip-rule="evenodd" d="M48.007 43.8393C47.9825 43.7511 48.0218 43.6578 48.1017 43.612C52.9465 40.8346 56.205 35.6519 56.205 29.7168C56.205 20.8521 48.9358 13.6658 39.9688 13.6658C31.0018 13.6658 23.7327 20.8521 23.7327 29.7168C23.7327 35.6637 27.0041 40.8553 31.8649 43.6286C31.9451 43.6743 31.9846 43.7679 31.96 43.8563L22.2316 78.7368C22.0544 79.3721 22.5367 80 23.2019 80H56.7369C57.4018 80 57.884 79.3727 57.7075 78.7376L48.007 43.8393Z" fill="#060606"/>
<path d="M25.2014 47.8668C25.3062 47.4911 25.1792 47.0909 24.8857 46.8314C22.7647 44.9565 20.9991 42.6902 19.6976 40.1363C17.3637 35.5567 16.6602 30.3239 17.7022 25.2943C18.7441 20.2646 21.4699 15.7363 25.4332 12.4505C29.3965 9.16475 34.3625 7.31625 39.5183 7.20759C44.6741 7.09892 49.7142 8.73658 53.8136 11.8524C57.9129 14.9683 60.8286 19.3778 62.0833 24.359C63.338 29.3402 62.8574 34.598 60.7202 39.2718C59.3885 42.1838 57.463 44.7616 55.0886 46.8541C54.7945 47.1133 54.667 47.5137 54.7715 47.8897L56.2974 53.3792C56.48 54.036 57.2584 54.3217 57.8107 53.9159C61.8976 50.9132 65.1751 46.9086 67.3024 42.2567C70.1185 36.0983 70.7518 29.1702 69.0985 22.6065C67.4452 16.043 63.6033 10.2327 58.2017 6.12708C52.8002 2.02143 46.1589 -0.136458 39.3653 0.00668963C32.5716 0.149886 26.028 2.5856 20.8057 6.91515C15.5834 11.2447 11.9918 17.2116 10.6188 23.839C9.2458 30.4663 10.1728 37.3616 13.2481 43.3958C15.371 47.5615 18.4309 51.1465 22.1562 53.8915C22.708 54.2981 23.4871 54.0132 23.6703 53.3564L25.2014 47.8668Z" fill="#060606"/>
</g>
</g>
</svg>
