<svg xmlns="http://www.w3.org/2000/svg" width="28" height="28" viewBox="0 0 28 28" fill="none">
  <path d="M14 3.5C16.8528 3.5 17.2088 3.5105 18.3281 3.563C19.4463 3.6155 20.2076 3.79085 20.8775 4.05125C21.5705 4.31795 22.1543 4.67915 22.7381 5.2619C23.272 5.78679 23.6852 6.42172 23.9487 7.1225C24.2081 7.79135 24.3845 8.55365 24.437 9.6719C24.4863 10.7912 24.5 11.1471 24.5 14C24.5 16.8528 24.4895 17.2088 24.437 18.3281C24.3845 19.4463 24.2081 20.2076 23.9487 20.8775C23.6859 21.5787 23.2727 22.2137 22.7381 22.7381C22.2131 23.2718 21.5782 23.6849 20.8775 23.9487C20.2086 24.2081 19.4463 24.3845 18.3281 24.437C17.2088 24.4863 16.8528 24.5 14 24.5C11.1471 24.5 10.7912 24.4895 9.6719 24.437C8.55365 24.3845 7.7924 24.2081 7.1225 23.9487C6.42144 23.6857 5.7864 23.2725 5.2619 22.7381C4.72788 22.2133 4.31473 21.5783 4.05125 20.8775C3.79085 20.2086 3.6155 19.4463 3.563 18.3281C3.51365 17.2088 3.5 16.8528 3.5 14C3.5 11.1471 3.5105 10.7912 3.563 9.6719C3.6155 8.5526 3.79085 7.7924 4.05125 7.1225C4.314 6.42129 4.72724 5.78619 5.2619 5.2619C5.78655 4.72769 6.42155 4.31452 7.1225 4.05125C7.7924 3.79085 8.5526 3.6155 9.6719 3.563C10.7912 3.51365 11.1471 3.5 14 3.5ZM14 8.75C12.6076 8.75 11.2723 9.30312 10.2877 10.2877C9.30312 11.2723 8.75 12.6076 8.75 14C8.75 15.3924 9.30312 16.7277 10.2877 17.7123C11.2723 18.6969 12.6076 19.25 14 19.25C15.3924 19.25 16.7277 18.6969 17.7123 17.7123C18.6969 16.7277 19.25 15.3924 19.25 14C19.25 12.6076 18.6969 11.2723 17.7123 10.2877C16.7277 9.30312 15.3924 8.75 14 8.75ZM20.825 8.4875C20.825 8.1394 20.6867 7.80556 20.4406 7.55942C20.1944 7.31328 19.8606 7.175 19.5125 7.175C19.1644 7.175 18.8306 7.31328 18.5844 7.55942C18.3383 7.80556 18.2 8.1394 18.2 8.4875C18.2 8.8356 18.3383 9.16944 18.5844 9.41558C18.8306 9.66172 19.1644 9.8 19.5125 9.8C19.8606 9.8 20.1944 9.66172 20.4406 9.41558C20.6867 9.16944 20.825 8.8356 20.825 8.4875ZM14 10.85C14.8354 10.85 15.6366 11.1819 16.2274 11.7726C16.8181 12.3634 17.15 13.1646 17.15 14C17.15 14.8354 16.8181 15.6366 16.2274 16.2274C15.6366 16.8181 14.8354 17.15 14 17.15C13.1646 17.15 12.3634 16.8181 11.7726 16.2274C11.1819 15.6366 10.85 14.8354 10.85 14C10.85 13.1646 11.1819 12.3634 11.7726 11.7726C12.3634 11.1819 13.1646 10.85 14 10.85Z" fill="#C4C9CF"/>
</svg>