<svg width="28" height="28" viewBox="0 0 28 28" fill="none" xmlns="http://www.w3.org/2000/svg">
<path d="M8.16667 18.6673C5.58934 18.6673 3.5 16.578 3.5 14.0007C3.5 11.7758 5.05699 9.91452 7.14083 9.4471C7.04864 9.03526 7 8.60697 7 8.16732C7 4.94566 9.61167 2.33398 12.8333 2.33398C15.6559 2.33398 18.0102 4.33861 18.5502 7.00179C18.5889 7.00103 18.6278 7.00065 18.6667 7.00065C21.8883 7.00065 24.5 9.61232 24.5 12.834C24.5 15.6561 22.4959 18.0101 19.8333 18.5506M17.5 15.1673L14 11.6673M14 11.6673L10.5 15.1673M14 11.6673L14 25.6673" stroke="#060606" stroke-width="2" stroke-linecap="round" stroke-linejoin="round"/>
</svg>
