<svg xmlns="http://www.w3.org/2000/svg" width="28" height="28" viewBox="0 0 28 28" fill="none">
<path d="M19.3649 6.79C18.5674 5.87956 18.1279 4.71034 18.1282 3.5H14.5232V17.9667C14.4954 18.7495 14.1649 19.4911 13.6013 20.0351C13.0377 20.5791 12.2849 20.8832 11.5016 20.8833C9.8449 20.8833 8.46823 19.53 8.46823 17.85C8.46823 15.8433 10.4049 14.3383 12.3999 14.9567V11.27C8.3749 10.7333 4.85156 13.86 4.85156 17.85C4.85156 21.735 8.07156 24.5 11.4899 24.5C15.1532 24.5 18.1282 21.525 18.1282 17.85V10.5117C19.5901 11.5615 21.3452 12.1248 23.1449 12.1217V8.51667C23.1449 8.51667 20.9516 8.62167 19.3649 6.79Z" fill="#C4C9CF"/>
</svg>