<svg width="32" height="32" viewBox="0 0 32 32" fill="none" xmlns="http://www.w3.org/2000/svg">
<g id="Icon/Solid/view-grid">
<g id="Icon">
<path d="M8.00078 4.80078C6.23347 4.80078 4.80078 6.23347 4.80078 8.00078V11.2008C4.80078 12.9681 6.23347 14.4008 8.00078 14.4008H11.2008C12.9681 14.4008 14.4008 12.9681 14.4008 11.2008V8.00078C14.4008 6.23347 12.9681 4.80078 11.2008 4.80078H8.00078Z" fill="#646A73"/>
<path d="M8.00078 17.6008C6.23347 17.6008 4.80078 19.0335 4.80078 20.8008V24.0008C4.80078 25.7681 6.23347 27.2008 8.00078 27.2008H11.2008C12.9681 27.2008 14.4008 25.7681 14.4008 24.0008V20.8008C14.4008 19.0335 12.9681 17.6008 11.2008 17.6008H8.00078Z" fill="#646A73"/>
<path d="M17.6008 8.00078C17.6008 6.23347 19.0335 4.80078 20.8008 4.80078H24.0008C25.7681 4.80078 27.2008 6.23347 27.2008 8.00078V11.2008C27.2008 12.9681 25.7681 14.4008 24.0008 14.4008H20.8008C19.0335 14.4008 17.6008 12.9681 17.6008 11.2008V8.00078Z" fill="#646A73"/>
<path d="M17.6008 20.8008C17.6008 19.0335 19.0335 17.6008 20.8008 17.6008H24.0008C25.7681 17.6008 27.2008 19.0335 27.2008 20.8008V24.0008C27.2008 25.7681 25.7681 27.2008 24.0008 27.2008H20.8008C19.0335 27.2008 17.6008 25.7681 17.6008 24.0008V20.8008Z" fill="#646A73"/>
</g>
</g>
</svg>
