<svg width="29" height="28" viewBox="0 0 29 28" fill="none" xmlns="http://www.w3.org/2000/svg">
<path d="M24.6498 3.85139C24.4862 3.68783 24.2788 3.57504 24.0526 3.5266C23.8264 3.47816 23.591 3.49614 23.3748 3.57838L3.37285 11.1493H3.36885C3.13823 11.238 2.94061 11.3957 2.80298 11.6009C2.66535 11.8061 2.59443 12.0488 2.5999 12.2959C2.60537 12.5429 2.68697 12.7823 2.83354 12.9812C2.98012 13.1801 3.18453 13.329 3.41885 13.4074L3.43935 13.4139L10.3045 16.3455C10.4384 16.3862 10.5806 16.391 10.717 16.3595C10.8533 16.328 10.979 16.2613 11.0815 16.166L22.0997 5.89899C22.1326 5.86616 22.1715 5.84012 22.2144 5.82235C22.2573 5.80458 22.3033 5.79544 22.3497 5.79544C22.3962 5.79544 22.4421 5.80458 22.485 5.82235C22.5279 5.84012 22.5669 5.86616 22.5997 5.89899C22.6326 5.93183 22.6586 5.9708 22.6764 6.0137C22.6942 6.0566 22.7033 6.10258 22.7033 6.14901C22.7033 6.19544 22.6942 6.24142 22.6764 6.28431C22.6586 6.32721 22.6326 6.36619 22.5997 6.39902L12.3325 17.4126C12.2373 17.5151 12.1706 17.6408 12.1391 17.7771C12.1076 17.9135 12.1124 18.0557 12.153 18.1896L15.0856 25.0589C15.0886 25.0689 15.0916 25.0779 15.0951 25.0874C15.2551 25.551 15.6601 25.878 16.1496 25.9H16.1996C16.4467 25.9014 16.6886 25.8284 16.8937 25.6906C17.0988 25.5527 17.2576 25.3563 17.3496 25.1269L24.9193 5.12996C25.0027 4.91359 25.0216 4.67768 24.9738 4.45078C24.926 4.22387 24.8134 4.01569 24.6498 3.85139Z" fill="#C4C9CF"/>
</svg>
