<svg width="24" height="24" viewBox="0 0 24 24" fill="none" xmlns="http://www.w3.org/2000/svg">
<g id="Icon/Solid/web-disabled">
<g id="Subtract">
<path fill-rule="evenodd" clip-rule="evenodd" d="M20.5086 17.2567C21.4542 15.7293 22.0001 13.9284 22.0001 12C22.0001 6.47715 17.5229 2 12.0001 2C10.0717 2 8.27077 2.54585 6.74342 3.49146L8.20673 4.95477C8.53945 4.77524 8.88635 4.6186 9.2453 4.48695C9.13142 4.7517 9.02649 5.03057 8.93008 5.31981C8.90045 5.4087 8.87143 5.49915 8.84305 5.59109L10.4792 7.2272C10.5821 6.76448 10.6991 6.33744 10.8274 5.95227C11.0795 5.19616 11.3575 4.65642 11.6178 4.32624C11.7456 4.16408 11.8495 4.07752 11.9186 4.03507C11.9516 4.01483 11.9736 4.00645 11.9848 4.00305C11.9949 3.99998 12 4 12 4C12 4 12.006 4.00019 12.0154 4.00305C12.0265 4.00645 12.0485 4.01483 12.0815 4.03507C12.1507 4.07752 12.2546 4.16408 12.3824 4.32624C12.6426 4.65642 12.9207 5.19616 13.1727 5.95227C13.5824 7.18121 13.8756 8.8364 13.9686 10.7167L16.252 13H19.9382C19.8135 14.0002 19.5041 14.943 19.0453 15.7934L20.5086 17.2567ZM15.9824 11C15.9052 8.8263 15.5783 6.84448 15.0701 5.31981C14.9737 5.03057 14.8687 4.7517 14.7549 4.48695C17.5155 5.49947 19.5629 7.9901 19.9382 11H15.9824Z" fill="#8E939C"/>
<path fill-rule="evenodd" clip-rule="evenodd" d="M15.7407 15.7391L15.7405 15.7405L17.6569 17.6568L19.0719 19.0703L21.5059 21.5059L19.877 23.1348L17.2531 20.5108C15.7265 21.455 13.9269 22 12.0001 22C6.47723 22 2.00008 17.5228 2.00008 12C2.00008 10.0731 2.54506 8.27357 3.48928 6.747L0.785156 4.04288L2.41406 2.41398L4.92902 4.92893L6.34401 6.34236L8.25962 8.25953L8.25982 8.25816L10.072 10.0703L10.0718 10.0718L11.0001 11H11.0017L13.0017 13H13.0001L13.9283 13.9282L13.9284 13.9268L15.7407 15.7391ZM4.06198 11H7.74227L4.95278 8.2105C4.49512 9.05982 4.18651 10.0013 4.06198 11ZM10.8274 18.0477C10.4183 16.8202 10.1252 15.1673 10.0318 13.2896L13.5199 16.7777C13.4172 17.2385 13.3007 17.6639 13.1727 18.0477C12.9207 18.8038 12.6426 19.3436 12.3824 19.6738C12.2546 19.8359 12.1507 19.9225 12.0815 19.9649C12.0485 19.9852 12.0265 19.9935 12.0154 19.9969C12.0053 20 12.0001 20 12.0001 20C12.0001 20 11.9949 20 11.9848 19.9969C11.9736 19.9935 11.9516 19.9852 11.9186 19.9649C11.8495 19.9225 11.7456 19.8359 11.6178 19.6738C11.3575 19.3436 11.0795 18.8038 10.8274 18.0477ZM15.0701 18.6802C15.0992 18.5928 15.1278 18.5038 15.1557 18.4134L15.7896 19.0473C15.458 19.226 15.1124 19.3819 14.7549 19.5131C14.8687 19.2483 14.9737 18.9694 15.0701 18.6802ZM8.01774 13H4.06198C4.4373 16.0099 6.48469 18.5005 9.2453 19.5131C9.13142 19.2483 9.02649 18.9694 8.93008 18.6802C8.42186 17.1555 8.09495 15.1737 8.01774 13Z" fill="#8E939C"/>
</g>
</g>
</svg>
