<?xml version="1.0" encoding="UTF-8"?>
<svg id="Capa_1" data-name="Capa 1" xmlns="http://www.w3.org/2000/svg" viewBox="0 0 104 36">
  <defs>
    <style>
      .cls-1 {
        fill: #635bff;
        fill-rule: evenodd;
      }

      .cls-1, .cls-2 {
        stroke-width: 0px;
      }

      .cls-2 {
        fill: #fff;
      }
    </style>
  </defs>
  <rect class="cls-2" x="0" width="104" height="36" rx="8" ry="8"/>
  <path class="cls-1" d="M87,18.49c0-4.98-2.41-8.91-7.02-8.91s-7.43,3.93-7.43,8.87c0,5.85,3.31,8.81,8.05,8.81,2.31,0,4.06-.52,5.39-1.26v-3.89c-1.32.66-2.84,1.07-4.76,1.07s-3.56-.66-3.77-2.96h9.51c0-.25.04-1.26.04-1.73ZM77.39,16.64c0-2.2,1.34-3.11,2.57-3.11s2.45.91,2.45,3.11h-5.02ZM65.05,9.58c-1.91,0-3.13.89-3.81,1.52l-.25-1.21h-4.28v22.67l4.86-1.03.02-5.5c.7.51,1.73,1.23,3.44,1.23,3.48,0,6.65-2.8,6.65-8.96-.02-5.64-3.23-8.71-6.63-8.71h0ZM63.88,22.98c-1.15,0-1.83-.41-2.29-.91l-.02-7.21c.51-.56,1.21-.95,2.31-.95,1.77,0,2.99,1.98,2.99,4.53s-1.21,4.55-2.99,4.55ZM50.02,8.43l4.88-1.05v-3.95l-4.88,1.03v3.97ZM50.02,9.91h4.88v17.01h-4.88V9.91ZM44.79,11.35l-.31-1.44h-4.2v17.01h4.86v-11.53c1.15-1.5,3.09-1.23,3.69-1.01v-4.47c-.62-.23-2.9-.66-4.04,1.44h0ZM35.06,5.69l-4.74,1.01-.02,15.57c0,2.88,2.16,5,5.04,5,1.59,0,2.76-.29,3.4-.64v-3.95c-.62.25-3.69,1.15-3.69-1.73v-6.9h3.69v-4.14h-3.69s.02-4.22.02-4.22ZM21.92,14.85c0-.76.62-1.05,1.65-1.05,1.48,0,3.34.45,4.82,1.24v-4.57c-1.61-.64-3.21-.89-4.82-.89-3.95,0-6.57,2.06-6.57,5.5,0,5.37,7.39,4.51,7.39,6.82,0,.89-.78,1.19-1.87,1.19-1.61,0-3.68-.66-5.31-1.56v4.63c1.81.78,3.64,1.11,5.31,1.11,4.04,0,6.82-2,6.82-5.48-.02-5.79-7.43-4.76-7.43-6.94h0Z"/>
</svg>