<?xml version="1.0" encoding="UTF-8"?>
<svg id="Capa_1" data-name="Capa 1" xmlns="http://www.w3.org/2000/svg" viewBox="0 0 104 36">
  <defs>
    <style>
      .cls-1 {
        fill: #283480;
      }

      .cls-1, .cls-2, .cls-3 {
        stroke-width: 0px;
      }

      .cls-2 {
        fill: #fff;
      }

      .cls-3 {
        fill: #009ee2;
      }
    </style>
  </defs>
  <rect class="cls-2" x="0" width="104" height="36" rx="8" ry="8"/>
  <g>
    <g>
      <path class="cls-1" d="M39.96,17.05c0-5.94-7.38-10.78-16.48-10.78S7,11.12,7,17.05c0,.15,0,.58,0,.63,0,6.3,6.45,11.4,16.48,11.4s16.48-5.1,16.48-11.4v-.63Z"/>
      <path class="cls-3" d="M39.33,17.05c0,5.6-7.09,10.14-15.84,10.14s-15.84-4.54-15.84-10.14,7.09-10.14,15.84-10.14,15.84,4.54,15.84,10.14Z"/>
      <g>
        <path class="cls-2" d="M18.22,13.85s-.17.18-.06.31c.25.32,1.02.5,1.8.33.47-.1,1.06-.58,1.64-1.04.63-.5,1.25-.99,1.87-1.19.66-.21,1.08-.12,1.36-.04.31.09.67.29,1.24.73,1.08.82,5.44,4.62,6.2,5.28.61-.27,3.3-1.43,6.97-2.24-.32-1.95-1.51-3.74-3.31-5.2-2.51,1.05-5.58,1.61-8.58.14-.02,0-1.64-.77-3.24-.74-2.38.06-3.41,1.09-4.5,2.18l-1.38,1.49Z"/>
        <path class="cls-2" d="M32.1,18.64c-.05-.05-5.13-4.49-6.28-5.35-.67-.5-1.04-.63-1.42-.68-.2-.03-.48.01-.68.06-.53.15-1.23.61-1.86,1.11-.64.51-1.25.99-1.81,1.12-.72.16-1.6-.03-2-.3-.16-.11-.28-.24-.33-.36-.15-.34.12-.62.17-.66l1.4-1.51c.16-.16.33-.33.49-.49-.45.06-.87.17-1.28.29-.51.14-1,.28-1.49.28-.21,0-1.31-.18-1.52-.24-1.27-.35-2.38-.68-4.04-1.46-1.99,1.48-3.32,3.34-3.71,5.38.29.08.75.21.94.26,4.51,1,5.91,2.03,6.16,2.25.28-.31.67-.5,1.12-.5.5,0,.95.25,1.22.64.26-.2.61-.38,1.07-.38.21,0,.43.04.64.11.51.17.77.51.91.82.17-.08.38-.13.63-.13.24,0,.49.06.75.17.83.36.96,1.17.88,1.79.06,0,.12,0,.18,0,.98,0,1.79.8,1.79,1.79,0,.3-.08.59-.21.84.27.15.95.49,1.55.42.48-.06.66-.22.73-.32.04-.06.09-.14.05-.19l-1.27-1.41s-.21-.2-.14-.27c.07-.08.2.03.29.11.65.54,1.44,1.36,1.44,1.36.01,0,.07.11.36.16.25.04.7.02,1-.23.08-.06.16-.14.22-.23,0,0,0,0-.01.01.33-.42-.04-.84-.04-.84l-1.48-1.67s-.21-.2-.14-.28c.06-.07.2.03.29.11.47.39,1.13,1.06,1.77,1.68.12.09.68.44,1.42-.05.45-.29.54-.66.53-.93-.03-.36-.31-.62-.31-.62l-2.03-2.04s-.21-.18-.14-.28c.06-.08.2.03.29.11.65.54,2.39,2.14,2.39,2.14.02.02.63.45,1.38-.03.27-.17.44-.43.45-.73.03-.52-.34-.83-.34-.83Z"/>
        <path class="cls-2" d="M22.26,21.22c-.31,0-.66.18-.7.16-.02-.02.02-.14.05-.22.03-.07.44-1.32-.56-1.75-.77-.33-1.24.04-1.41.21-.04.04-.06.04-.07-.02-.02-.22-.12-.83-.78-1.03-.95-.29-1.56.37-1.72.61-.07-.54-.53-.96-1.09-.96-.61,0-1.11.49-1.11,1.1,0,.61.49,1.11,1.11,1.11.3,0,.57-.12.76-.31,0,0,0,.02,0,.04-.05.27-.13,1.27.91,1.67.42.16.77.04,1.07-.16.09-.06.1-.04.09.05-.04.26,0,.8.78,1.11.58.24.93,0,1.16-.21.1-.09.13-.08.13.06.03.74.64,1.33,1.39,1.33.77,0,1.39-.62,1.39-1.39,0-.77-.62-1.38-1.39-1.39Z"/>
      </g>
      <path class="cls-1" d="M32.29,18.11c-1.56-1.36-5.18-4.51-6.15-5.24-.56-.42-.94-.64-1.27-.74-.15-.05-.36-.1-.63-.1-.25,0-.52.04-.8.13-.63.2-1.26.7-1.87,1.19l-.03.02c-.57.45-1.15.92-1.6,1.02-.19.04-.39.07-.59.07-.5,0-.94-.14-1.11-.36-.03-.04,0-.09.05-.17h0s1.38-1.49,1.38-1.49c1.08-1.08,2.09-2.09,4.44-2.15.04,0,.08,0,.12,0,1.46,0,2.91.65,3.08.73,1.37.67,2.78,1.01,4.2,1.01,1.48,0,3-.37,4.61-1.1-.18-.15-.37-.3-.56-.44-1.41.61-2.75.92-4.05.92-1.32,0-2.64-.32-3.93-.94-.07-.03-1.68-.79-3.35-.79-.04,0-.09,0-.13,0-1.97.05-3.08.74-3.82,1.36-.72.02-1.35.19-1.91.35-.5.14-.92.26-1.34.26-.17,0-.48-.02-.51-.02-.48-.01-2.9-.61-4.83-1.34-.2.14-.39.28-.57.43,2.01.83,4.46,1.46,5.24,1.51.22.01.44.04.67.04.51,0,1.02-.14,1.52-.28.29-.08.61-.17.95-.24-.09.09-.18.18-.27.27l-1.4,1.51c-.11.11-.35.41-.19.77.06.15.19.29.37.41.33.22.93.38,1.48.38.21,0,.41-.02.59-.06.59-.13,1.2-.62,1.85-1.14.52-.41,1.26-.94,1.82-1.09.16-.04.35-.07.51-.07.05,0,.09,0,.13,0,.37.05.73.17,1.38.66,1.15.86,6.22,5.3,6.27,5.35,0,0,.33.28.3.75-.01.26-.16.49-.41.65-.22.14-.44.21-.67.21-.34,0-.57-.16-.59-.17-.02-.02-1.76-1.61-2.4-2.15-.1-.08-.2-.16-.3-.16-.05,0-.1.02-.13.06-.1.12.01.3.14.41l2.03,2.04s.25.24.28.55c.02.34-.15.62-.48.84-.24.16-.48.24-.72.24-.31,0-.53-.14-.58-.18l-.29-.29c-.53-.52-1.08-1.07-1.48-1.4-.1-.08-.2-.16-.3-.16-.05,0-.09.02-.13.05-.05.05-.08.14.04.29.05.06.1.11.1.11l1.48,1.66s.31.36.03.71l-.05.07s-.09.09-.14.13c-.25.21-.59.23-.72.23-.07,0-.14,0-.2-.02-.15-.03-.24-.07-.29-.12l-.02-.02c-.08-.08-.83-.85-1.45-1.36-.08-.07-.18-.15-.29-.15-.05,0-.1.02-.13.06-.12.13.06.33.14.41l1.26,1.39s-.02.04-.05.09c-.05.06-.2.22-.66.27-.05,0-.11.01-.17.01-.47,0-.98-.23-1.24-.37.12-.25.18-.53.18-.8,0-1.04-.84-1.89-1.88-1.89-.02,0-.05,0-.07,0,.03-.48-.03-1.37-.96-1.77-.27-.11-.53-.17-.79-.17-.2,0-.4.03-.58.1-.19-.37-.51-.64-.92-.78-.23-.08-.46-.12-.68-.12-.38,0-.74.11-1.05.34-.3-.38-.76-.6-1.24-.6-.42,0-.83.17-1.13.47-.39-.3-1.95-1.29-6.13-2.24-.2-.05-.67-.18-.95-.26-.05.23-.08.45-.11.69,0,0,.77.18.92.22,4.27.95,5.68,1.93,5.92,2.12-.08.19-.12.4-.12.61,0,.88.72,1.6,1.6,1.6.1,0,.2,0,.29-.03.13.65.56,1.14,1.21,1.39.19.07.38.11.57.11.12,0,.24-.02.36-.05.12.3.39.68.99.93.21.09.42.13.63.13.17,0,.33-.03.49-.09.29.7.98,1.17,1.74,1.17.51,0,1-.21,1.35-.57.3.17.95.48,1.6.48.08,0,.16,0,.24-.02.64-.08.95-.33,1.08-.53.02-.03.05-.07.07-.11.15.04.32.08.51.08.35,0,.69-.12,1.03-.37.34-.24.57-.59.61-.89,0,0,0,0,0-.01.11.02.23.04.35.04.36,0,.72-.11,1.06-.34.66-.43.77-.99.76-1.36.11.02.23.04.35.04.34,0,.67-.1.99-.31.41-.26.65-.66.69-1.12.03-.32-.05-.63-.22-.91,1.1-.47,3.62-1.39,6.58-2.06-.02-.23-.05-.46-.09-.68-3.59.8-6.26,1.95-6.93,2.25ZM22.26,23.91c-.7,0-1.26-.54-1.29-1.23,0-.06,0-.22-.14-.22-.05,0-.1.03-.16.08-.15.14-.35.29-.63.29-.13,0-.27-.03-.42-.09-.74-.3-.75-.8-.72-1.01,0-.05.01-.11-.03-.15l-.05-.04h-.05s-.08.02-.13.05c-.21.15-.42.22-.62.22-.11,0-.23-.02-.35-.07-.97-.38-.89-1.29-.84-1.57,0-.06,0-.1-.04-.13l-.07-.06-.06.06c-.19.18-.44.28-.7.28-.55,0-1.01-.45-1.01-1.01,0-.55.45-1.01,1.01-1,.5,0,.93.38.99.88l.03.27.15-.23s.42-.64,1.17-.64c.14,0,.29.02.44.07.6.18.7.72.71.95.01.13.1.14.12.14.05,0,.09-.03.12-.06.11-.12.36-.31.74-.31.18,0,.36.04.55.12.95.41.52,1.61.51,1.62-.08.2-.08.29,0,.34l.04.02h.03s.1-.02.18-.05c.13-.04.32-.11.51-.11h0c.71,0,1.29.59,1.29,1.29,0,.71-.58,1.29-1.29,1.29Z"/>
    </g>
    <g>
      <path class="cls-1" d="M96.11,10.19c-.59-.75-1.5-1.12-2.71-1.12s-2.11.37-2.71,1.12c-.6.74-.89,1.63-.89,2.64s.3,1.92.89,2.65c.59.73,1.5,1.1,2.71,1.1s2.11-.37,2.71-1.1c.6-.74.89-1.62.89-2.65s-.3-1.9-.89-2.64ZM94.63,14.46c-.29.38-.7.57-1.24.57s-.95-.19-1.24-.57c-.29-.38-.44-.93-.44-1.63s.14-1.25.44-1.63c.29-.38.71-.57,1.24-.57s.95.19,1.24.57c.29.38.43.92.43,1.63s-.14,1.25-.43,1.63Z"/>
      <path class="cls-1" d="M80.91,9.56c-.6-.31-1.29-.46-2.07-.46-1.19,0-2.04.31-2.53.93-.31.4-.48.91-.52,1.52h1.78c.04-.27.13-.49.26-.65.18-.22.5-.32.94-.32.4,0,.69.05.9.17.2.11.31.31.31.6,0,.24-.13.41-.4.53-.15.06-.39.12-.74.16l-.63.08c-.72.09-1.26.24-1.63.45-.68.39-1.01,1.02-1.01,1.89,0,.67.21,1.19.63,1.55.42.37.95.52,1.6.55,4.03.18,3.99-2.13,4.03-2.61v-2.65c0-.85-.3-1.43-.91-1.74ZM79.97,13.59c-.01.62-.19,1.04-.53,1.28-.34.23-.71.35-1.12.35-.26,0-.47-.07-.65-.21-.18-.14-.27-.37-.27-.68,0-.35.14-.62.44-.78.17-.1.46-.18.85-.25l.42-.08c.21-.04.37-.08.5-.13.12-.04.24-.1.36-.18v.69Z"/>
      <path class="cls-1" d="M71.71,10.68c.46,0,.8.14,1.02.43.15.21.24.45.28.71h1.99c-.11-1-.46-1.71-1.05-2.1-.6-.4-1.36-.59-2.29-.59-1.1,0-1.96.34-2.58,1.01-.62.67-.94,1.61-.94,2.82,0,1.07.28,1.94.85,2.62.56.67,1.44,1.01,2.64,1.01s2.1-.4,2.71-1.21c.38-.5.6-1.03.64-1.59h-1.98c-.04.37-.16.67-.35.91-.19.23-.51.35-.97.35-.64,0-1.08-.29-1.31-.88-.13-.31-.19-.73-.19-1.24,0-.54.06-.98.19-1.3.24-.62.69-.92,1.35-.92Z"/>
      <path class="cls-1" d="M67.61,9.13c-4.09,0-3.85,3.62-3.85,3.62v3.68h1.86v-3.45c0-.56.07-.98.21-1.26.25-.48.75-.72,1.49-.72.06,0,.13,0,.22,0,.09,0,.19.01.31.03v-1.89c-.08,0-.14,0-.16-.01-.02,0-.05,0-.09,0Z"/>
      <path class="cls-1" d="M60.79,14.5c-.08.11-.16.21-.25.28-.26.22-.62.28-1.04.28-.4,0-.71-.06-.99-.24-.46-.28-.72-.77-.75-1.47h5.13c0-.61-.01-1.07-.06-1.4-.09-.55-.27-1.04-.56-1.46-.32-.47-.73-.82-1.22-1.04-.49-.22-1.04-.33-1.66-.33-1.03,0-1.87.33-2.52.98-.65.65-.97,1.59-.97,2.81,0,1.3.36,2.24,1.08,2.82.72.58,1.55.87,2.48.87,1.14,0,2.02-.34,2.65-1.03.34-.36.55-.72.64-1.07h-1.97ZM58.3,11.05c.26-.27.63-.4,1.1-.4.44,0,.8.13,1.09.38.29.25.46.62.49,1.11h-3.17c.07-.46.23-.82.49-1.09Z"/>
      <path class="cls-1" d="M55.16,16.42h-1.69v-4.27c0-.39-.13-1.32-1.25-1.32-.75,0-1.28.54-1.28,1.32v4.27h-1.7v-4.27c0-.39-.12-1.32-1.23-1.32-.76,0-1.29.54-1.29,1.32v4.27h-1.7v-4.23c0-1.76,1.17-3.09,2.98-3.09.9,0,1.63.38,2.11.98.5-.61,1.25-.98,2.11-.98,1.85,0,2.94,1.28,2.94,3.09v4.23Z"/>
      <path class="cls-1" d="M89.25,6.9s-1.87-.2-1.87,1.3v1.99c-.21-.33-.48-.59-.81-.78-.33-.19-.71-.28-1.14-.28-.93,0-1.67.35-2.22,1.03-.55.69-.83,1.68-.83,2.89,0,1.04.28,1.9.84,2.56.56.67,1.67.96,2.64.96,3.42,0,3.38-2.93,3.38-2.93v-6.74ZM87.02,14.48c-.27.39-.67.58-1.19.58s-.91-.2-1.17-.59c-.26-.39-.38-.96-.38-1.61,0-.6.13-1.11.38-1.52.25-.41.65-.61,1.19-.61.35,0,.66.11.93.34.44.37.65,1.04.65,1.9,0,.62-.14,1.12-.41,1.51Z"/>
    </g>
    <g>
      <path class="cls-3" d="M58.57,28.2c0,.25-.09.47-.27.65-.18.18-.4.27-.65.27h-.93v-6.45c0-1.25.42-2.04,1.12-2.57.46-.35,1.14-.69,2.43-.69.87,0,1.88.34,2.43,1,.61.75.87,1.59.87,2.68s-.27,2.04-.82,2.74c-.55.68-1.25,1.02-2.1,1.02-.45,0-.85-.08-1.2-.24-.37-.18-.65-.46-.87-.83v2.41ZM61.68,23.18c0-.7-.14-1.24-.41-1.61-.27-.38-.66-.57-1.17-.57s-.87.19-1.15.57c-.25.34-.38.88-.38,1.61,0,.68.14,1.19.41,1.53.27.38.66.57,1.17.57.47,0,.85-.19,1.12-.57.27-.38.41-.89.41-1.53"/>
      <path class="cls-3" d="M75.85,26.27v-.46c-.32.5-.76.81-1.3.94-.55.12-1.09.08-1.62-.14-.54-.21-1-.61-1.38-1.2-.38-.58-.57-1.35-.57-2.3,0-1.11.25-2.01.76-2.7.51-.69,1.33-1,2.45-1.04,1.11-.03,1.75.22,2.38.7.69.52,1.1,1.33,1.1,2.58v3.79c0,1.21-.84,3.44-3.48,3.25-1.64-.12-2.55-.79-3.05-2.31h1.96c.14.25.36.44.66.58.29.14.59.17.88.11.29-.06.56-.24.81-.52.24-.29.38-.72.41-1.29M72.8,23.18c0,1.24.36,1.92,1.07,2.06.71.13,1.24-.03,1.58-.5.16-.2.28-.51.35-.93.07-.42.08-.84.01-1.25-.06-.41-.21-.78-.44-1.1-.23-.32-.57-.48-1.02-.48-.61,0-1.02.23-1.23.67-.22.45-.32.96-.32,1.53"/>
      <path class="cls-3" d="M69.39,19.9c-.6-.31-1.29-.46-2.07-.46-1.2,0-2.04.31-2.53.93-.31.4-.48.91-.52,1.52h1.79c.04-.27.13-.49.26-.65.18-.22.5-.32.94-.32.4,0,.69.05.9.17.2.11.31.31.31.6,0,.24-.13.41-.4.53-.15.06-.39.12-.74.16l-.63.08c-.72.09-1.26.24-1.63.45-.68.39-1.01,1.02-1.01,1.89,0,.67.21,1.19.63,1.55.42.37.95.52,1.6.55,4.03.18,3.99-2.13,4.03-2.61v-2.65c0-.85-.3-1.43-.9-1.74M68.45,23.93c-.01.62-.19,1.04-.53,1.28-.34.23-.71.35-1.12.35-.26,0-.47-.07-.65-.21-.18-.14-.27-.37-.27-.68,0-.35.15-.62.44-.78.17-.1.46-.18.85-.25l.42-.08c.21-.04.38-.08.49-.13.12-.04.24-.1.36-.18v.69Z"/>
      <path class="cls-3" d="M84.69,20.48c-.6-.75-1.5-1.12-2.71-1.12s-2.11.37-2.71,1.12c-.6.74-.89,1.62-.89,2.64s.3,1.92.89,2.65c.59.73,1.5,1.1,2.71,1.1s2.11-.37,2.71-1.1c.59-.74.89-1.62.89-2.65s-.3-1.9-.89-2.64M83.22,24.76c-.29.38-.7.57-1.24.57s-.95-.19-1.24-.57c-.29-.38-.44-.93-.44-1.63s.14-1.25.44-1.63c.29-.38.71-.57,1.24-.57s.95.19,1.24.57c.29.38.43.92.43,1.63s-.14,1.25-.43,1.63"/>
    </g>
  </g>
</svg>