<svg width="146" height="32" viewBox="0 0 146 32" fill="none" xmlns="http://www.w3.org/2000/svg">
<path d="M51.5093 28.1598C59.5897 28.1598 61.6694 26.3635 61.8399 19.1446H55.021C54.8506 22.6693 54.5096 23.076 51.5093 23.076C47.9976 23.076 47.6226 22.5338 47.6226 17.5856C47.6226 12.6374 47.9976 12.0951 51.5093 12.0951C54.5437 12.0951 54.8847 12.4679 55.021 15.9588H61.8399C61.6353 8.80765 59.5556 7.01139 51.5093 7.01139C42.9517 7.01139 40.8037 9.11268 40.8037 17.5856C40.8037 26.0585 42.9517 28.1598 51.5093 28.1598Z" fill="#E6E9ED"/>
<path d="M64.2182 0.639771V27.7531H70.6961V16.4672C70.6961 13.6542 71.7872 12.4341 74.3101 12.4341C76.8672 12.4341 77.14 12.8069 77.14 16.1282V27.7531H83.6179L83.5838 14.6031C83.5838 8.53652 82.1859 7.01139 76.8672 7.01139C73.3214 7.01139 71.3439 8.12982 70.6961 10.6378V0.639771H64.2182Z" fill="#E6E9ED"/>
<path d="M106.297 21.2798H99.4779C99.4779 22.9743 98.796 23.4149 96.1025 23.4149C93.3068 23.4149 92.659 22.9744 92.5226 19.4157H106.467V16.2638C106.297 8.87543 104.149 7.01139 96.0684 7.01139C87.7494 7.01139 85.6697 9.11268 85.6697 17.5856C85.6697 26.0585 87.7494 28.1598 96.0684 28.1598C104.115 28.1598 106.16 26.7702 106.297 21.2798ZM92.5567 14.6709C92.7954 12.0951 93.5796 11.7562 96.1025 11.7562C99.1028 11.7562 99.5801 12.0612 99.6483 14.6709H92.5567Z" fill="#E6E9ED"/>
<path d="M114.647 21.3814V20.9409H108.169V21.3814C108.169 26.8041 110.283 28.1598 118.67 28.1598C126.921 28.1598 129.001 27.0075 129.001 22.3304C129.001 17.8228 126.853 16.3316 118.295 14.942C116.045 14.6031 115.465 14.2981 115.465 13.3491C115.465 11.9257 115.772 11.7562 118.67 11.7562C121.671 11.7562 122.012 11.9596 122.012 13.8914V14.5014H128.489V13.8914C128.489 8.40095 126.512 7.01139 118.67 7.01139C110.658 7.01139 108.647 8.23149 108.647 13.1458C108.647 17.0433 110.385 18.3312 117.341 19.6869C121.227 20.3986 122.182 20.8392 122.182 21.8559C122.182 23.2455 121.807 23.4149 118.5 23.4149C115.022 23.4149 114.647 23.2116 114.647 21.3814Z" fill="#E6E9ED"/>
<path d="M145.363 21.9915H141.919C139.805 21.9915 139.567 21.7204 139.567 19.2463V12.8408H145.022V7.41809H139.567V3.07997H133.43V7.41809H131.043V12.8408H133.089V20.907C133.089 26.3974 134.725 27.7531 141.271 27.7531H145.363V21.9915Z" fill="#E6E9ED"/>
<path fill-rule="evenodd" clip-rule="evenodd" d="M1.27916 5.6787C0.379883 7.45041 0.379883 9.7697 0.379883 14.4083V18.1894C0.379883 22.828 0.379883 25.1472 1.27916 26.9189C2.07019 28.4774 3.33239 29.7444 4.88487 30.5385C6.64981 31.4412 8.96023 31.4412 13.5811 31.4412H17.3477C21.9686 31.4412 24.279 31.4412 26.044 30.5385C27.5964 29.7444 28.8586 28.4774 29.6497 26.9189C30.5489 25.1472 30.5489 22.828 30.5489 18.1894V14.4083C30.5489 9.7697 30.5489 7.45041 29.6497 5.6787C28.8586 4.12027 27.5964 2.85322 26.044 2.05916C24.279 1.15643 21.9686 1.15643 17.3477 1.15643H13.5811C8.96023 1.15643 6.64981 1.15643 4.88487 2.05916C3.33239 2.85322 2.07019 4.12027 1.27916 5.6787ZM12.0764 17.8566C12.1422 17.915 12.1707 18.0051 12.1472 18.0897L11.8039 19.3255C11.7628 19.4734 11.5881 19.5375 11.4643 19.4459C10.6289 18.828 9.94273 18.021 9.46666 17.0832C8.77701 15.7248 8.56912 14.1726 8.87703 12.6807C9.18492 11.1888 9.99036 9.84556 11.1615 8.87092C12.3326 7.89627 13.8 7.34796 15.3235 7.31573C16.847 7.2835 18.3364 7.76927 19.5477 8.69351C20.759 9.61775 21.6206 10.9257 21.9913 12.4033C22.3621 13.8808 22.2201 15.4404 21.5885 16.8268C21.1115 17.874 20.3765 18.7755 19.46 19.4514C19.3361 19.5428 19.1616 19.4785 19.1206 19.3306L18.7784 18.0949C18.755 18.0102 18.7836 17.9201 18.8496 17.8617C19.382 17.3907 19.8138 16.8104 20.1124 16.1548C20.5917 15.1027 20.6995 13.9191 20.4181 12.7978C20.1368 11.6764 19.4829 10.6838 18.5636 9.98237C17.6443 9.28095 16.5141 8.91229 15.3579 8.93675C14.2016 8.96121 13.088 9.37733 12.1992 10.117C11.3104 10.8567 10.6992 11.8761 10.4655 13.0083C10.2318 14.1405 10.3896 15.3185 10.913 16.3495C11.2049 16.9244 11.6008 17.4345 12.0764 17.8566ZM17.2827 17.1319C17.2648 17.1422 17.256 17.1632 17.2615 17.1831L19.4368 25.0392C19.4764 25.1821 19.3683 25.3233 19.2192 25.3233H11.6988C11.5497 25.3233 11.4415 25.182 11.4812 25.039L13.6629 17.1869C13.6684 17.167 13.6595 17.1459 13.6416 17.1356C12.5515 16.5113 11.8179 15.3426 11.8179 14.0039C11.8179 12.0083 13.448 10.3906 15.4589 10.3906C17.4698 10.3906 19.0999 12.0083 19.0999 14.0039C19.0999 15.34 18.3692 16.5067 17.2827 17.1319Z" fill="#8E939C"/>
</svg>
