<svg width="146" height="32" viewBox="0 0 146 32" fill="none" xmlns="http://www.w3.org/2000/svg">
<path d="M51.5093 28.1596C59.5897 28.1596 61.6694 26.3634 61.8399 19.1445H55.021C54.8506 22.6692 54.5096 23.0759 51.5093 23.0759C47.9976 23.0759 47.6226 22.5336 47.6226 17.5855C47.6226 12.6373 47.9976 12.095 51.5093 12.095C54.5437 12.095 54.8847 12.4678 55.021 15.9587H61.8399C61.6353 8.80753 59.5556 7.01127 51.5093 7.01127C42.9517 7.01127 40.8037 9.11255 40.8037 17.5855C40.8037 26.0584 42.9517 28.1596 51.5093 28.1596Z" fill="#646A73"/>
<path d="M64.2182 0.639648V27.7529H70.6961V16.467C70.6961 13.654 71.7872 12.4339 74.3101 12.4339C76.8672 12.4339 77.14 12.8067 77.14 16.1281V27.7529H83.6179L83.5838 14.603C83.5838 8.5364 82.1859 7.01127 76.8672 7.01127C73.3214 7.01127 71.3439 8.1297 70.6961 10.6377V0.639648H64.2182Z" fill="#646A73"/>
<path d="M106.297 21.2796H99.4779C99.4779 22.9742 98.796 23.4148 96.1025 23.4148C93.3068 23.4148 92.659 22.9742 92.5226 19.4156H106.467V16.2637C106.297 8.87531 104.149 7.01127 96.0684 7.01127C87.7494 7.01127 85.6697 9.11255 85.6697 17.5855C85.6697 26.0584 87.7494 28.1596 96.0684 28.1596C104.115 28.1596 106.16 26.7701 106.297 21.2796ZM92.5567 14.6708C92.7954 12.095 93.5796 11.7561 96.1025 11.7561C99.1028 11.7561 99.5801 12.0611 99.6483 14.6708H92.5567Z" fill="#646A73"/>
<path d="M114.647 21.3813V20.9407H108.169V21.3813C108.169 26.804 110.283 28.1596 118.67 28.1596C126.921 28.1596 129.001 27.0073 129.001 22.3303C129.001 17.8227 126.853 16.3315 118.295 14.9419C116.045 14.603 115.465 14.298 115.465 13.349C115.465 11.9256 115.772 11.7561 118.67 11.7561C121.671 11.7561 122.012 11.9594 122.012 13.8913V14.5013H128.489V13.8913C128.489 8.40083 126.512 7.01127 118.67 7.01127C110.658 7.01127 108.647 8.23137 108.647 13.1457C108.647 17.0432 110.385 18.3311 117.341 19.6867C121.227 20.3985 122.182 20.8391 122.182 21.8558C122.182 23.2454 121.807 23.4148 118.5 23.4148C115.022 23.4148 114.647 23.2115 114.647 21.3813Z" fill="#646A73"/>
<path d="M145.363 21.9914H141.919C139.805 21.9914 139.567 21.7202 139.567 19.2461V12.8406H145.022V7.41797H139.567V3.07984H133.43V7.41797H131.043V12.8406H133.089V20.9068C133.089 26.3973 134.725 27.7529 141.271 27.7529H145.363V21.9914Z" fill="#646A73"/>
<path fill-rule="evenodd" clip-rule="evenodd" d="M1.27916 5.67876C0.379883 7.45047 0.379883 9.76976 0.379883 14.4083V18.1894C0.379883 22.828 0.379883 25.1473 1.27916 26.919C2.07019 28.4774 3.33239 29.7445 4.88487 30.5386C6.64981 31.4413 8.96023 31.4413 13.5811 31.4413H17.3477C21.9686 31.4413 24.279 31.4413 26.044 30.5386C27.5964 29.7445 28.8586 28.4774 29.6497 26.919C30.5489 25.1473 30.5489 22.828 30.5489 18.1894V14.4083C30.5489 9.76976 30.5489 7.45047 29.6497 5.67876C28.8586 4.12033 27.5964 2.85328 26.044 2.05922C24.279 1.15649 21.9686 1.15649 17.3477 1.15649H13.5811C8.96023 1.15649 6.64981 1.15649 4.88487 2.05922C3.33239 2.85328 2.07019 4.12033 1.27916 5.67876ZM12.0764 17.8567C12.1422 17.9151 12.1707 18.0052 12.1472 18.0898L11.8039 19.3256C11.7628 19.4734 11.5881 19.5375 11.4643 19.446C10.6289 18.8281 9.94273 18.021 9.46666 17.0833C8.77701 15.7249 8.56912 14.1727 8.87703 12.6808C9.18492 11.1888 9.99036 9.84562 11.1615 8.87098C12.3326 7.89633 13.8 7.34802 15.3235 7.31579C16.847 7.28356 18.3364 7.76933 19.5477 8.69357C20.759 9.61781 21.6206 10.9258 21.9913 12.4033C22.3621 13.8809 22.2201 15.4405 21.5885 16.8269C21.1115 17.8741 20.3765 18.7755 19.46 19.4515C19.3361 19.5428 19.1616 19.4785 19.1206 19.3307L18.7784 18.0949C18.755 18.0103 18.7836 17.9202 18.8496 17.8618C19.382 17.3907 19.8138 16.8105 20.1124 16.1549C20.5917 15.1028 20.6995 13.9192 20.4181 12.7978C20.1368 11.6765 19.4829 10.6838 18.5636 9.98243C17.6443 9.28101 16.5141 8.91235 15.3579 8.93681C14.2016 8.96127 13.088 9.37739 12.1992 10.1171C11.3104 10.8567 10.6992 11.8761 10.4655 13.0084C10.2318 14.1406 10.3896 15.3186 10.913 16.3495C11.2049 16.9244 11.6008 17.4346 12.0764 17.8567ZM17.2827 17.1319C17.2648 17.1423 17.256 17.1633 17.2615 17.1831L19.4368 25.0392C19.4764 25.1822 19.3683 25.3234 19.2192 25.3234H11.6988C11.5497 25.3234 11.4415 25.1821 11.4812 25.039L13.6629 17.1869C13.6684 17.167 13.6595 17.146 13.6416 17.1357C12.5515 16.5114 11.8179 15.3427 11.8179 14.004C11.8179 12.0084 13.448 10.3907 15.4589 10.3907C17.4698 10.3907 19.0999 12.0084 19.0999 14.004C19.0999 15.34 18.3692 16.5067 17.2827 17.1319Z" fill="#646A73"/>
</svg>
