<svg width="146" height="32" viewBox="0 0 146 32" fill="none" xmlns="http://www.w3.org/2000/svg">
<path d="M51.5093 28.1606C59.5897 28.1606 61.6694 26.3644 61.8399 19.1455H55.021C54.8506 22.6702 54.5096 23.0769 51.5093 23.0769C47.9976 23.0769 47.6226 22.5346 47.6226 17.5864C47.6226 12.6383 47.9976 12.096 51.5093 12.096C54.5437 12.096 54.8847 12.4688 55.021 15.9596H61.8399C61.6353 8.80851 59.5556 7.01225 51.5093 7.01225C42.9517 7.01225 40.8037 9.11353 40.8037 17.5864C40.8037 26.0593 42.9517 28.1606 51.5093 28.1606Z" fill="#E6E9ED"/>
<path d="M64.2182 0.640625V27.7539H70.6961V16.468C70.6961 13.655 71.7872 12.4349 74.3101 12.4349C76.8672 12.4349 77.14 12.8077 77.14 16.1291V27.7539H83.6179L83.5838 14.604C83.5838 8.53737 82.1859 7.01225 76.8672 7.01225C73.3214 7.01225 71.3439 8.13067 70.6961 10.6387V0.640625H64.2182Z" fill="#E6E9ED"/>
<path d="M106.297 21.2806H99.4779C99.4779 22.9752 98.796 23.4158 96.1025 23.4158C93.3068 23.4158 92.659 22.9752 92.5226 19.4166H106.467V16.2647C106.297 8.87629 104.149 7.01225 96.0684 7.01225C87.7494 7.01225 85.6697 9.11353 85.6697 17.5864C85.6697 26.0593 87.7494 28.1606 96.0684 28.1606C104.115 28.1606 106.16 26.7711 106.297 21.2806ZM92.5567 14.6718C92.7954 12.096 93.5796 11.7571 96.1025 11.7571C99.1028 11.7571 99.5801 12.0621 99.6483 14.6718H92.5567Z" fill="#E6E9ED"/>
<path d="M114.647 21.3823V20.9417H108.169V21.3823C108.169 26.805 110.283 28.1606 118.67 28.1606C126.921 28.1606 129.001 27.0083 129.001 22.3313C129.001 17.8237 126.853 16.3324 118.295 14.9429C116.045 14.604 115.465 14.2989 115.465 13.35C115.465 11.9265 115.772 11.7571 118.67 11.7571C121.671 11.7571 122.012 11.9604 122.012 13.8922V14.5023H128.489V13.8922C128.489 8.40181 126.512 7.01225 118.67 7.01225C110.658 7.01225 108.647 8.23235 108.647 13.1466C108.647 17.0442 110.385 18.3321 117.341 19.6877C121.227 20.3994 122.182 20.84 122.182 21.8568C122.182 23.2463 121.807 23.4158 118.5 23.4158C115.022 23.4158 114.647 23.2124 114.647 21.3823Z" fill="#E6E9ED"/>
<path d="M145.363 21.9923H141.919C139.805 21.9923 139.567 21.7212 139.567 19.2471V12.8416H145.022V7.41895H139.567V3.08082H133.43V7.41895H131.043V12.8416H133.089V20.9078C133.089 26.3983 134.725 27.7539 141.271 27.7539H145.363V21.9923Z" fill="#E6E9ED"/>
<path fill-rule="evenodd" clip-rule="evenodd" d="M1.27916 5.67852C0.379883 7.45022 0.379883 9.76951 0.379883 14.4081V18.1892C0.379883 22.8278 0.379883 25.1471 1.27916 26.9188C2.07019 28.4772 3.33239 29.7442 4.88487 30.5383C6.64981 31.441 8.96023 31.441 13.5811 31.441H17.3477C21.9686 31.441 24.279 31.441 26.044 30.5383C27.5964 29.7442 28.8586 28.4772 29.6497 26.9188C30.5489 25.1471 30.5489 22.8278 30.5489 18.1892V14.4081C30.5489 9.76951 30.5489 7.45022 29.6497 5.67852C28.8586 4.12009 27.5964 2.85304 26.044 2.05898C24.279 1.15625 21.9686 1.15625 17.3477 1.15625H13.5811C8.96023 1.15625 6.64981 1.15625 4.88487 2.05898C3.33239 2.85304 2.07019 4.12009 1.27916 5.67852ZM12.0764 17.8564C12.1422 17.9149 12.1707 18.005 12.1472 18.0895L11.8039 19.3253C11.7628 19.4732 11.5881 19.5373 11.4643 19.4458C10.6289 18.8278 9.94273 18.0208 9.46666 17.083C8.77701 15.7246 8.56912 14.1724 8.87703 12.6805C9.18492 11.1886 9.99036 9.84538 11.1615 8.87073C12.3326 7.89609 13.8 7.34778 15.3235 7.31554C16.847 7.28332 18.3364 7.76909 19.5477 8.69333C20.759 9.61757 21.6206 10.9255 21.9913 12.4031C22.3621 13.8807 22.2201 15.4403 21.5885 16.8266C21.1115 17.8738 20.3765 18.7753 19.46 19.4513C19.3361 19.5426 19.1616 19.4783 19.1206 19.3305L18.7784 18.0947C18.755 18.01 18.7836 17.9199 18.8496 17.8616C19.382 17.3905 19.8138 16.8102 20.1124 16.1547C20.5917 15.1025 20.6995 13.9189 20.4181 12.7976C20.1368 11.6762 19.4829 10.6836 18.5636 9.98218C17.6443 9.28076 16.5141 8.9121 15.3579 8.93656C14.2016 8.96103 13.088 9.37715 12.1992 10.1168C11.3104 10.8565 10.6992 11.8759 10.4655 13.0081C10.2318 14.1404 10.3896 15.3184 10.913 16.3493C11.2049 16.9242 11.6008 17.4344 12.0764 17.8564ZM17.2827 17.1317C17.2648 17.142 17.256 17.163 17.2615 17.1829L19.4368 25.039C19.4764 25.182 19.3683 25.3232 19.2192 25.3232H11.6988C11.5497 25.3232 11.4415 25.1818 11.4812 25.0388L13.6629 17.1867C13.6684 17.1668 13.6595 17.1457 13.6416 17.1354C12.5515 16.5111 11.8179 15.3424 11.8179 14.0037C11.8179 12.0081 13.448 10.3904 15.4589 10.3904C17.4698 10.3904 19.0999 12.0081 19.0999 14.0037C19.0999 15.3398 18.3692 16.5065 17.2827 17.1317Z" fill="#FFB447"/>
</svg>
