<svg width="31" height="31" viewBox="0 0 31 31" fill="none" xmlns="http://www.w3.org/2000/svg">
<path fill-rule="evenodd" clip-rule="evenodd" d="M1.27916 4.67852C0.379883 6.45022 0.379883 8.76951 0.379883 13.4081V17.1892C0.379883 21.8278 0.379883 24.1471 1.27916 25.9188C2.07019 27.4772 3.33239 28.7442 4.88487 29.5383C6.64981 30.441 8.96023 30.441 13.5811 30.441H17.3477C21.9686 30.441 24.279 30.441 26.044 29.5383C27.5964 28.7442 28.8586 27.4772 29.6497 25.9188C30.5489 24.1471 30.5489 21.8278 30.5489 17.1892V13.4081C30.5489 8.76951 30.5489 6.45022 29.6497 4.67852C28.8586 3.12009 27.5964 1.85304 26.044 1.05898C24.279 0.15625 21.9686 0.15625 17.3477 0.15625H13.5811C8.96023 0.15625 6.64981 0.15625 4.88487 1.05898C3.33239 1.85304 2.07019 3.12009 1.27916 4.67852ZM12.0764 16.8564C12.1422 16.9149 12.1707 17.005 12.1472 17.0895L11.8039 18.3253C11.7628 18.4732 11.5881 18.5373 11.4643 18.4458C10.6289 17.8278 9.94273 17.0208 9.46666 16.083C8.77701 14.7246 8.56912 13.1724 8.87703 11.6805C9.18492 10.1886 9.99036 8.84538 11.1615 7.87073C12.3326 6.89609 13.8 6.34778 15.3235 6.31554C16.847 6.28332 18.3364 6.76909 19.5477 7.69333C20.759 8.61757 21.6206 9.92553 21.9913 11.4031C22.3621 12.8807 22.2201 14.4403 21.5885 15.8266C21.1115 16.8738 20.3765 17.7753 19.46 18.4513C19.3361 18.5426 19.1616 18.4783 19.1206 18.3305L18.7784 17.0947C18.755 17.01 18.7836 16.9199 18.8496 16.8616C19.382 16.3905 19.8138 15.8102 20.1124 15.1547C20.5917 14.1025 20.6995 12.9189 20.4181 11.7976C20.1368 10.6762 19.4829 9.6836 18.5636 8.98218C17.6443 8.28076 16.5141 7.9121 15.3579 7.93656C14.2016 7.96103 13.088 8.37715 12.1992 9.11683C11.3104 9.85649 10.6992 10.8759 10.4655 12.0081C10.2318 13.1404 10.3896 14.3184 10.913 15.3493C11.2049 15.9242 11.6008 16.4344 12.0764 16.8564ZM17.2827 16.1317C17.2648 16.142 17.256 16.163 17.2615 16.1829L19.4368 24.039C19.4764 24.182 19.3683 24.3232 19.2192 24.3232H11.6988C11.5497 24.3232 11.4415 24.1818 11.4812 24.0388L13.6629 16.1867C13.6684 16.1668 13.6595 16.1457 13.6416 16.1354C12.5515 15.5111 11.8179 14.3424 11.8179 13.0037C11.8179 11.0081 13.448 9.39041 15.4589 9.39041C17.4698 9.39041 19.0999 11.0081 19.0999 13.0037C19.0999 14.3398 18.3692 15.5065 17.2827 16.1317Z" fill="#FFB447"/>
</svg>
